<svg width="187" height="40" viewBox="0 0 187 40" fill="none" xmlns="http://www.w3.org/2000/svg">
<path d="M179.796 31.3314C177.861 31.3314 175.926 32.0564 174.717 33.2647C172.54 28.6731 165.766 25.5315 157.542 25.5315C152.462 25.5315 147.866 26.7398 144.721 28.9148C142.544 24.8065 138.432 21.9066 133.352 21.9066C129.966 21.9066 126.821 23.3566 124.402 25.5315C119.806 18.765 110.372 14.1735 99.4867 14.1735C91.9879 14.1735 84.973 16.3484 79.8931 20.215C75.7809 8.85691 64.8955 0.88208 52.075 0.88208C39.4964 0.88208 28.6111 8.8569 24.2569 19.9733C22.0799 19.0067 19.9028 18.5234 17.2419 18.5234C8.04984 18.5234 0.792969 26.0149 0.792969 34.9563C0.792969 36.4063 1.03484 37.8563 1.51863 39.3062H23.7731H33.2071H72.1525H80.3769H121.016H126.337H139.642H144.721H171.572H174.233H186.811V39.0646C187.295 34.7147 183.909 31.3314 179.796 31.3314Z" fill="#F4EBFF"/>
</svg>
