<svg width="73" height="108" viewBox="0 0 73 108" fill="none" xmlns="http://www.w3.org/2000/svg">
<path d="M2.66723 84.3958C5.3281 80.0459 8.95654 77.146 12.8269 73.2794C13.0688 73.0377 13.5526 72.5544 13.7945 72.3128C19.1162 66.7546 30.4853 55.8798 30.4853 55.8798C30.4853 55.8798 53.4655 17.214 62.4157 0.781006L72.8173 18.9056C65.8023 33.6469 54.4331 61.6796 49.8371 67.7212C41.3707 78.8376 31.4529 89.7124 22.2609 101.07C19.6 104.212 15.2459 106.87 11.1336 107.595C9.92413 107.837 8.95654 107.837 7.98895 107.595C4.3605 106.87 1.94155 103.97 0.973962 100.104C-0.719314 95.0289 -0.235529 89.229 2.66723 84.3958Z" fill="#EA4A49"/>
</svg>
